<?xml version="1.0" encoding="utf-8"?>
<!-- Generator: Adobe Illustrator 27.2.0, SVG Export Plug-In . SVG Version: 6.00 Build 0)  -->
<svg version="1.1" id="Calque_1" xmlns="http://www.w3.org/2000/svg" xmlns:xlink="http://www.w3.org/1999/xlink" x="0px" y="0px"
	 width="700px" height="557.1px" viewBox="0 0 700 557.1" style="enable-background:new 0 0 700 557.1;" xml:space="preserve">
<style type="text/css">
	.st0{fill:url(#bg_00000009572896974736015900000014506227150407717013_);}
	.st1{fill:none;stroke:#FFFFFF;stroke-width:1.3029;stroke-linejoin:round;stroke-miterlimit:10;}
	.st2{fill:#FFFFFF;stroke:#FFFFFF;stroke-width:1.3029;stroke-linejoin:round;stroke-miterlimit:10;}
	.st3{fill:none;stroke:#FFFFFF;stroke-width:1.3029;stroke-miterlimit:10;}
	.st4{fill:#FFFFFF;}
	.st5{opacity:0.85;}
	.st6{fill:#7961F5;}
	.st7{fill:#FFCD69;}
	.st8{fill:#DFE2E5;}
	.st9{fill:none;stroke:#000000;stroke-width:1.1476;stroke-linecap:round;stroke-miterlimit:10;}
	.st10{fill:#FF7680;}
	.st11{fill:#9194FF;}
	.st12{fill:none;stroke:#FFFFFF;stroke-width:1.1476;stroke-linecap:round;stroke-miterlimit:10;}
	.st13{fill:none;stroke:#FFFFFF;stroke-width:1.1476;stroke-miterlimit:10;}
	.st14{fill:#F5F6F8;}
	.st15{fill:#E3E5E9;}
	.st16{fill:none;stroke:#445268;stroke-width:2.6059;stroke-linecap:round;stroke-linejoin:round;stroke-miterlimit:10;}
	.st17{fill:none;stroke:#E3E5E9;stroke-width:1.3029;stroke-linecap:round;stroke-linejoin:round;stroke-miterlimit:10;}
	.st18{fill:none;stroke:#FFFFFF;stroke-width:1.3029;stroke-linecap:round;stroke-miterlimit:10;}
	.st19{fill:none;stroke:#445268;stroke-width:2.5711;stroke-linecap:round;stroke-linejoin:round;stroke-miterlimit:10;}
	.st20{fill:none;stroke:#445268;stroke-width:1.3029;stroke-linecap:round;stroke-linejoin:round;stroke-miterlimit:10;}
	.st21{fill:#445268;}
	.st22{fill:#FF7757;}
	.st23{fill:#FFD385;}
	.st24{fill:#D1D5E0;}
	.st25{fill:#E4ECEF;stroke:#000000;stroke-width:0.8197;stroke-miterlimit:10;}
	.st26{fill:#FFFFFF;stroke:#000000;stroke-width:0.8197;stroke-miterlimit:10;}
	.st27{fill:none;stroke:#000000;stroke-width:1.3029;stroke-linejoin:round;stroke-miterlimit:10;}
	.st28{fill:#FFFFFF;stroke:#000000;stroke-width:1.3029;stroke-linejoin:round;stroke-miterlimit:10;}
	.st29{fill:#425975;stroke:#000000;stroke-width:0.8197;stroke-miterlimit:10;}
	.st30{fill:#FFFFFF;stroke:#000000;stroke-width:1.3029;stroke-miterlimit:10;}
	.st31{fill:none;stroke:#000000;stroke-width:1.3029;stroke-miterlimit:10;}
	.st32{fill:#1F253A;stroke:#000000;stroke-width:0.8197;stroke-miterlimit:10;}
	.st33{fill:#AF6A5A;stroke:#000000;stroke-width:1.3029;stroke-miterlimit:10;}
	.st34{stroke:#000000;stroke-width:0.8197;stroke-miterlimit:10;}
	.st35{fill:#F3FAFF;stroke:#000000;stroke-width:1.3029;stroke-linejoin:round;stroke-miterlimit:10;}
	.st36{fill:#F3FAFF;stroke:#000000;stroke-width:1.3029;stroke-miterlimit:10;}
	.st37{fill:#FFFFFF;stroke:#1F253A;stroke-width:1.3029;stroke-miterlimit:10;}
	.st38{fill:#FFCD69;stroke:#1F253A;stroke-width:1.3029;stroke-miterlimit:10;}
	.st39{fill:#3D40FF;}
	.st40{fill:none;stroke:#1F253A;stroke-width:1.3029;stroke-miterlimit:10;}
</style>
<linearGradient id="bg_00000057108124266335029060000010082997162117007787_" gradientUnits="userSpaceOnUse" x1="2.369" y1="261.6944" x2="690.2097" y2="261.6944">
	<stop  offset="0" style="stop-color:#FF968C"/>
	<stop  offset="1" style="stop-color:#FFD8B0"/>
</linearGradient>
<path id="bg_00000123404817306127119680000006539092131678177665_" style="fill:url(#bg_00000057108124266335029060000010082997162117007787_);" d="
	M689,302.1c-8.2-100-92.7-108.9-92.7-108.9S591.1,96.7,532,60.7c-49.1-29.9-97.4-29.5-132.3-18.1c-3.5-4.2-49.7-31-99.7-34
	c-55.9-3.4-156.3,12.8-197.3,102.7c-40.3,88.4-12.2,195.1-12.2,195.1s-60.3-24.6-82.9,55.4c-20.6,72.9,27.1,153.6,27.1,153.6h194.2
	h222.6h186C637.4,515.3,699.4,428.7,689,302.1z"/>
<g>
	<polygon class="st1" points="463.5,76.7 446.7,47.7 429.8,76.7 413,47.7 396.1,76.7 379.2,47.7 362.4,76.7 345.5,47.7 328.7,76.7 
		311.8,47.7 295,76.7 278.1,47.7 261.2,76.7 244.4,47.7 227.5,76.7 210.7,47.7 193.8,76.7 176.9,47.7 160.1,76.7 	"/>
	<line class="st1" x1="176.9" y1="47.7" x2="446.7" y2="47.7"/>
	<line class="st2" x1="510.7" y1="79.7" x2="510.7" y2="387.9"/>
	<line class="st2" x1="492.8" y1="82.7" x2="492.8" y2="365"/>
	<polyline class="st3" points="508.7,377 471.2,355.2 508.7,333.3 471.2,311.5 508.7,289.7 471.2,267.9 508.7,246.1 471.2,224.2 
		508.7,202.4 471.2,180.6 508.7,158.8 471.2,137 508.7,115.2 471.2,93.3 471.2,280.5 	"/>
	<path class="st1" d="M331.5,77.5c0,0,35.3,14.3,57.1,14.3c26.2,0,73.3-14.3,73.3-14.3"/>
	
		<rect x="458.4" y="76.5" transform="matrix(-1 -4.494772e-11 4.494772e-11 -1 979.9066 168.3011)" class="st4" width="63.1" height="15.2"/>
	<polygon class="st4" points="512.6,32.8 472,32.8 457.4,57 472,81.1 512.6,81.1 	"/>
</g>
<g class="st5">
	<path class="st4" d="M101.2,456.6c-4.3-2-8.2-3.7-11.7-5.3c-15.9-7.1-24.4-10.9-32.9-21.4c-4.6-0.6-30.4-4.3-36.8-15.5
		C12.6,402,22,387,26.1,384.5c4.1-2.4,1.9,16.4,6.7,27c4.1,9.2,19.5,16.3,23.5,18c-1.3-1.7-2.7-3.5-4.1-5.6
		c-3.1-4.6-4.8-11.2-5-18.9c-1.4-7.6-3.8-23.6-0.6-34.5c4.3-14.9,10.9-25.2,21.7-30.8s27.7-6.4,26.4,1.1
		c-1.3,7.5-21.8,28.1-35.3,41.2c-8.3,8.1-10.7,16.7-11.3,22c0,0.3,0,0.5,0,0.8c0.2,7.6,1.9,14,4.9,18.6
		c9.5,14.3,17.5,18.4,33.9,25.7c-0.6-0.5-1.3-0.9-1.8-1.3c-2.1-1.7-3.8-4.6-4.1-6.4l0-0.2c-0.1-0.3-0.1-0.6-0.2-0.8
		c-1.7-4.4-3.9-11.7-3.7-19.1c0.3-11.8,11.5-37.8,19.3-41.2c4.2-1.8,3.3,14.9-1.8,26.1c-5,11.1-9.1,11.7-11.5,20.5
		c-1.6,5.6-1.6,10.6-1.3,13.9c0,0.1,0.1,0.3,0.1,0.4l0,0.2c0.2,1.3,1.7,4.1,3.8,5.8c2.1,1.7,5.9,4.2,6.3,4.4
		c2.9,1.3,6.1,2.7,9.5,4.3c14,6.5,22.7,15.1,27.4,21.1c5.2,6.6,7,11.5,7.1,11.7l-0.9,0.3c0,0-1.9-5-7-11.5
		C123.5,471.4,115,463,101.2,456.6z"/>
	<path class="st4" d="M31.3,455.8c0.9-1.9,43.6-4.6,61.5,0c17.9,4.6,28.6,15.5,28.6,15.5L121,472c-2.2-0.1-26,2.8-52.8-1.9
		C41.5,465.4,30.4,457.7,31.3,455.8z"/>
</g>
<path class="st6" d="M71.7,207.6c-0.3-2.4,23.8-10.1,40.8-5.5c17,4.6,31.6,17.3,31.6,17.3l0.1,0.8c-1.8,0-19.4,5-43.6,0.8
	C76.5,216.7,72,210,71.7,207.6z"/>
<path d="M69.5,156.5c1.6-2,32.8,8.5,47.1,23.2c14.4,14.8,19.5,34.1,19.5,34.1l-0.5,0.7c-2-1.2-26.4-7.5-47.3-28.4
	C75,172.9,67.9,158.5,69.5,156.5z"/>
<path class="st7" d="M131.4,260.9c-0.9,2.2-4.6,9.8-10.7,15.5c-5.5,5.1-19.6,7.4-19.6,3.1c0-7.9,6.5-21,14.3-25.5
	c12.3-7.2,23.2-4.6,23.2-4.6S134.1,254.6,131.4,260.9z"/>
<g>
	<path class="st4" d="M132,498c-4.8,0-8.8-3.9-8.8-8.8V120.9c0-4.8,3.9-8.8,8.8-8.8h409.3c4.8,0,8.8,3.9,8.8,8.8v368.3
		c0,4.8-3.9,8.8-8.8,8.8H132z"/>
	<path class="st8" d="M541.3,112.8c4.5,0,8.1,3.6,8.1,8.1v368.3c0,4.5-3.6,8.1-8.1,8.1H132c-4.5,0-8.1-3.6-8.1-8.1V120.9
		c0-4.5,3.6-8.1,8.1-8.1H541.3 M541.3,111.5H132c-5.2,0-9.4,4.2-9.4,9.4v368.3c0,5.2,4.2,9.4,9.4,9.4h409.3c5.2,0,9.4-4.2,9.4-9.4
		V120.9C550.8,115.7,546.5,111.5,541.3,111.5L541.3,111.5z"/>
</g>
<g id="plant_00000044883247200088990670000018324404348656936327_" transform="translate(-286.534 -412.471)">
	<path id="Tracé_234_00000098186773714063508040000006493842944705045378_" class="st7" d="M928.7,882.1c0.8,0.1,15.4-4,32.3-20.4
		c14.6-14.2,18.2-27.7,20-27.6c2.8,0.1,7.4,27-8.5,40.7C954.8,890,928.7,882.1,928.7,882.1"/>
	<path id="Tracé_235_00000087379728334325809290000007769046145509286314_" d="M891,932.8c11.8,4.2,22.9,15.2,46.3,9.7
		c17.8-4.2,29.3-23.4,28.2-25.6c-0.7-1.4-17.4-9-35.9-8c-29,1.5-50.6,23-50.6,23S882.8,929.9,891,932.8"/>
	<path id="Tracé_236_00000114049146793540899330000016847112512845473960_" class="st9" d="M892.4,927.1
		c11.8,4.2,22.9,15.2,46.3,9.7c17.8-4.2,29.3-23.4,28.2-25.6c-0.7-1.4-17.4-9-35.9-8c-29,1.5-50.6,23-50.6,23
		S884.3,924.2,892.4,927.1z"/>
	<path id="Tracé_237_00000044872687760245020630000010846977383107423630_" class="st10" d="M907.8,873.9
		c-2.4-2.2-11.1-9.8-16.5-21.3c-4.9-10.3-1.7-32.7,3.3-31.1c9.4,3,23.5,17.7,27.2,31.4c5.9,21.5-10.8,37.7-10.8,37.7
		S914.8,880.4,907.8,873.9"/>
	<path id="Tracé_238_00000018941551214256873880000016821841788444336316_" d="M972.9,823.3c4.2-3.9,5.1-10.2,2.9-11.5
		c-5.3-3.2-14.9,0.6-18.1,8.2c-3.3,7.9-1.4,14.1-1.4,14.1c1.6-1.9,3.4-3.5,5.5-4.8C964.4,827.5,969.1,826.9,972.9,823.3"/>
	<path id="Tracé_239_00000136374458734723162780000011272963412181785002_" class="st11" d="M946.8,846.9c-0.5,3.6-1,5.7-1,5.7
		l-2,6.2c0.3-0.8,0.4-1.7,0.5-2.6c0.3-2.8-1.4-7.9-3.5-11c-7-10.4-25.6-21.5-34.3-28.4C887,801.2,877.8,781.4,879,775
		c0.3-1.4,16.3-4.4,31.5,0.7c13.6,4.5,26,16.2,32.5,32.1c5.8,14.1,5,30,3.9,38.5"/>
	<path id="Tracé_240_00000127763451324654526020000004401224274806036669_" class="st9" d="M945.9,852.6c0.3-1.1,0.5-2.1,0.6-3.2
		c0.3-2.8-1.7-8.1-3.8-11.2c-7-10.4-25.6-21.5-34.3-28.4c-19.7-15.6-28.8-35.4-27.6-41.9c0.3-1.4,16.3-4.4,31.5,0.7
		c13.6,4.5,26,16.2,32.5,32.1c8.4,20.5,2.9,44.8,2.9,44.8L945.9,852.6z"/>
	<path id="Tracé_241_00000029040659089149760490000013148595281263360904_" class="st12" d="M946.9,843.9
		c0.2-8.3-1.7-16.3-4.5-24.4c-9.7-28.1-46.8-45.1-46.8-45.1"/>
	<path id="Tracé_241_00000092421080209643932090000015130550972772822918_" class="st9" d="M943.8,859.1c1.9-5,3-8.4,3.1-12.4"/>
	<path id="Tracé_242_00000029757017615974654990000003292844626292194744_" class="st9" d="M865.8,937.8c2.2-6.2,9.8-23,31.5-36.4
		c27.1-16.6,39.4-24.7,46.3-41.8"/>
	<path id="Tracé_243_00000093144032631555619050000000849537040041845673_" class="st13" d="M962.9,915c0,0-10.6-2.6-39.1,0.7
		c-31.4,3.7-56.2,20.6-56.2,20.6"/>
	<path id="Tracé_244_00000122708379518291746380000000192756269495895985_" class="st12" d="M912.6,772.1l4.2,15.3l-19.9-0.9"/>
	<path id="Tracé_245_00000165215189066817395080000006091629577858944677_" class="st12" d="M927.1,781.6l0.9,15.7l-21.5-0.3"/>
	<path id="Tracé_246_00000054951947741641051400000002569455598328730550_" class="st12" d="M938.1,794l-1.1,14.1l-22.6-0.4"/>
	<path id="Tracé_247_00000001663195118010804860000003723964472964824984_" class="st12" d="M945.5,810.1l-2.4,11.5l-10.9-0.8"/>
	<path id="Tracé_248_00000019640085886231250610000017149854922620163486_" class="st12" d="M948.6,909.2l-8.7,4.7l14.5,7.3"/>
	<path id="Tracé_249_00000132804132869667147260000006771690144985691271_" class="st12" d="M931.7,908.6l-8,7.1l20.7,12.7"/>
	<path id="Tracé_250_00000143605923093864646090000011197246539788398987_" class="st12" d="M913.5,911.7l-5.8,7.3l17.2,12.5"/>
</g>
<g id="Groupe_11_00000017518895340985452180000004926356604911638717_" transform="translate(-1210 -583)">
	
		<rect id="Rectangle_19_00000093858069721815265640000008163971764856861104_" x="1380.6" y="937.9" class="st14" width="146.2" height="105.6"/>
	<path id="Tracé_31_00000095338748884178911000000007726854452209062298_" class="st15" d="M1461.1,1043.4h-80.6l40.5-52
		L1461.1,1043.4z"/>
	<path id="Tracé_32_00000000929260805101819260000001122280265204639379_" class="st15" d="M1526.8,1043.4h-107.7l54.1-71.4
		L1526.8,1043.4z"/>
	<circle id="Ellipse_7_00000000937492010310568900000012834984419717859978_" class="st15" cx="1437.5" cy="964" r="8.1"/>
</g>
<g id="Groupe_11_00000106129957551677696660000003553189064142606754_" transform="translate(-1210 -583)">
	
		<rect id="Rectangle_19_00000122698227447440838780000007341454976852669857_" x="1333.9" y="753.6" class="st14" width="425.5" height="146.4"/>
	<path id="Tracé_31_00000035495785014043386240000008478584021012368032_" class="st15" d="M1510,900h-147.2l73.9-77.7L1510,900z"
		/>
	<path id="Tracé_32_00000003795671440580757110000009224080769368201865_" class="st15" d="M1630,900h-196.8l98.8-106.6L1630,900z"
		/>
	<circle id="Ellipse_7_00000090998733089878437880000006789873089531013532_" class="st15" cx="1469.7" cy="796.3" r="9.8"/>
</g>
<line class="st16" x1="343.2" y1="355.6" x2="478.9" y2="355.6"/>
<line class="st17" x1="343.2" y1="374.3" x2="501.3" y2="374.3"/>
<line class="st17" x1="343.2" y1="389.4" x2="501.3" y2="389.4"/>
<line class="st17" x1="343.2" y1="404.5" x2="501.3" y2="404.5"/>
<line class="st17" x1="343.2" y1="421.1" x2="445" y2="421.1"/>
<path class="st6" d="M413.4,440.1h-70.8c-1,0-1.8,0.8-1.8,1.8v16.8c0,1,0.8,1.8,1.8,1.8h70.8c1,0,1.8-0.8,1.8-1.8v-16.8
	C415.2,440.9,414.4,440.1,413.4,440.1z"/>
<line class="st18" x1="354" y1="450.3" x2="401.9" y2="450.3"/>
<rect x="332.3" y="193.9" class="st4" width="169" height="99.9"/>
<line class="st19" x1="350.6" y1="213.2" x2="482.8" y2="213.2"/>
<line class="st20" x1="332.3" y1="152.8" x2="369.6" y2="152.8"/>
<line class="st20" x1="392.7" y1="152.8" x2="424.3" y2="152.8"/>
<line class="st20" x1="444.8" y1="152.8" x2="476.4" y2="152.8"/>
<line class="st17" x1="350.8" y1="229.3" x2="482.7" y2="229.3"/>
<line class="st17" x1="350.8" y1="244.4" x2="482.7" y2="244.4"/>
<path class="st6" d="M422.6,262.7h-70.8c-1,0-1.8,0.8-1.8,1.8v16.8c0,1,0.8,1.8,1.8,1.8h70.8c1,0,1.8-0.8,1.8-1.8v-16.8
	C424.3,263.5,423.5,262.7,422.6,262.7z"/>
<line class="st18" x1="362.9" y1="272.8" x2="411.4" y2="272.8"/>
<g>
	<path class="st21" d="M123.3,135.6v-14.9c0-4.7,3.8-8.6,8.6-8.6h409.7c4.7,0,8.6,3.8,8.6,8.6v14.9H123.3z"/>
	<path class="st21" d="M541.5,112.8c4.4,0,7.9,3.5,7.9,7.9v14.2H123.9v-14.2c0-4.4,3.5-7.9,7.9-7.9H541.5 M541.5,111.5H131.8
		c-5.1,0-9.2,4.1-9.2,9.2v14.2v1.3h1.3h425.5h1.3v-1.3v-14.2C550.8,115.6,546.6,111.5,541.5,111.5L541.5,111.5z"/>
</g>
<g id="btn-interface_00000021815819219119349240000015838552429018630046_">
	<circle class="st22" cx="137.4" cy="123.9" r="3.6"/>
	<circle class="st23" cx="149.2" cy="123.9" r="3.6"/>
	<circle class="st24" cx="161.1" cy="123.9" r="3.6"/>
</g>
<g>
	<g>
		<g>
			<path class="st25" d="M391.4,543.8"/>
		</g>
	</g>
	<path class="st26" d="M127.8,431.8c0,0,18.3,11.6,21.1,13.3c2.9,1.7,11.6,5.8,18.1,6.5c6.4,0.7,17.9,2.8,20.5,3.1
		c2.6,0.3,7.2,0.8,7.8,3.8c0.6,2.9,0.1,7.2-1.1,8.1c-1.1,0.9-3.7,1.1-8.3,0.8c-4.6-0.4-20.7-1.9-26.8-2.6c-6.1-0.7-11-1.4-15-3.6
		c-3.2-1.8-15.6-7.7-19.8-9.7l0.9-15.5L127.8,431.8z"/>
	<path class="st27" d="M127.9,431.9c0,0,21.1,13.5,25.2,15.6c3.4,1.8,10.2,3.2,14.5,4.1c4.3,0.9,25,3.5,26.6,4.7s1.5,5.4,1.3,7.2
		s-1.6,4.7-3.7,4.5s-40-3.1-44.4-5.1c-3.8-1.7-23.2-11.3-23.2-11.3"/>
	<path class="st28" d="M195.2,456.4c0,0,3.5-4.1,4.5-5c1-0.8,6.2-3.7,6.2-3.7l3.5,1.2l-6.1,1.8c0,0,5.6-1.9,8.2-1.6
		c2.7,0.3,5,2.6,5,2.6l-8.6,1.7c0,0,8.7-1.7,10-1c1.9,0.9,3,4.1,3,4.1l-9.6,1c0,0,9.5-0.9,10.9-0.7c1.5,0.2,6.3,0.7,9.2,1.5
		c2.6,0.7,4,2.1,2.9,3.6c-1.1,1.5-8.9,0.5-11.7,0.4c-2-0.1-10.5,2.2-10.5,2.2l-1.8,2.1c0,0,3.1,0.5,4.6,0.7c1.5,0.2,3.5-0.4,5.4,0
		c1.4,0.3,2.8,1.3,2.3,2.6s-6.4,2.4-8,2.6c-1.1,0.1-10.5-1.1-12.8-1.7c-2.2-0.6-7.6-3.1-7.6-3.1"/>
	<path class="st29" d="M303.1,520.8c-0.2-3.3-3.2-3-5.4-3c-2.2,0-24-2.5-35-4.5c-2.2-0.4-5.2-1-8.8-1.8c-15.6-16-48-49.1-51.3-50
		c-4.4-1.2-10.6-1.8-13.7-0.3c-0.3,0.2-1.2,0.7-2.5,1.5L100.6,524c3.8,7.4,8.1,11.4,13.7,13.2c5,1.6,16.7,0,24.6-2.5
		c16.2-0.4,64.8-6.8,69.1-7.2c5-0.4,32.7,3.2,36.3,3.5c0.4,0.1,1.4,0.1,2.8,0.2c1.6,1.4,2.7,2.2,2.9,2.2c1.3,0.2,4-0.2,7-1.9
		c15.2,0.4,38.5,1,39.8,1.1c1.9,0.2,3.1,0.1,4.3-0.8C302.4,530.9,303.2,524.1,303.1,520.8z M207.6,503.3c-11-0.3-21.7-1.3-21.7-1.3
		s-2.5-0.1-5.6,0c8.6-7.9,15.4-14.5,16.1-15.2c0.6-0.6,0.7-1.1,0.9-2.1c0.2-0.7,0.3-0.7,0.5,0l-0.2,1.3c0,0.2,1,1,1.1,1.1
		c1.4,1.1,9.5,8.7,19,17.4C213.6,503.8,210.1,503.3,207.6,503.3z"/>
	<path class="st28" d="M303.2,515.8c0,0,4.7-8.5,6.5-11.7c2.1-3.9,5.3-11.4,5.3-12.4c0-3.9,0.6-7.9,4.4-8.2c0.9-0.1,1.9,2.2,1.6,4.9
		c-0.3,2.7-0.5,8.6-0.5,12.7s-2.9,12.5-2.9,15.6c0,3,1.5,11.2-2.1,12.8c-3.6,1.7-13.8-1.7-13.8-1.7"/>
	<path class="st28" d="M252.4,530.5c0,0-1,2.7-0.5,4.8s11.7,1.3,15,0.6c3.2-0.8,14.2,0.6,18.4,0s10-0.4,9.4-1.7
		c-0.6-1.4-0.6-4.8-3.4-4.8s-22.1-5.8-24.3-6.3c-2.3-0.4-3.8-1.5-3.8-1.5"/>
	<path class="st27" d="M100.9,521.2c3.8,7.4,8.1,11.4,13.7,13.2c6.5,2.1,24.4-1.3,30.7-4.9c10.5-6.1,49.7-43.6,51.6-45.5
		c0.6-0.6,0.7-1.1,0.9-2.1c0.2-0.7,0.3-0.7,0.5,0l-0.2,1.3c0,0.2,1,1,1.1,1.1c3.4,2.8,49.3,46.1,51.2,46.3c1.9,0.3,6.5-0.6,10.9-4.9
		c4.4-4.2,1.3-8.5,1.3-8.5s-55.1-57.3-59.5-58.5c-4.4-1.2-10.6-1.8-13.7-0.3c-0.3,0.2-1.2,0.7-2.5,1.5"/>
	<path class="st30" d="M131,439.9c0,0-2.9-7-2.9-7.7c0-0.6,1.3-6,2.3-10.6l-15.3-5.7l-2.5,15.1l13.4,4.7L131,439.9"/>
	<path class="st27" d="M142.5,530.8c0,0,58.9-4.9,63.4-5.7c3.7-0.7,31.7,2.5,42.3,3.7"/>
	<path class="st27" d="M181.3,498.8c0,0,25.5,1.8,30.1,1.8c2.2,0,5.2,0.8,7.7,1.6"/>
	<path class="st27" d="M254.4,508.8c0,0,34.9,5.7,39.1,6.1c4.2,0.4,8.2-0.5,9.1,0.4c0.8,0.8,1.5,5.5,0.6,9.1
		c-0.9,3.6-1.7,5.5-3.2,5.5c-1.5,0-9-0.5-9-0.5"/>
	<path class="st30" d="M135.3,421.5c14.4-2.7,17.5-16.4,15.6-27.1c-1.4-7.7-6.4-17.2-6.4-17.2s-3.4-13.7-10.8-14.6
		c-7.4-0.9-34.5,9.9-36.8,19.4s11.4,31.5,14.7,33.2S121.3,424.1,135.3,421.5z"/>
	<path class="st30" d="M135.8,472.2l-14-9.6c14.9,11.1,36.4,22.6,39.5,21.4c4.3-1.7,34.9-32.2,37.4-37.6c2.5-5.4-9.3-9.5-9.3-9.5
		l-30.6,28.7c0,0-26.9-27-34.7-30.9c0,0-15.2-7.6-22.5,5.2c-7.2,12.8-5.6,48.7-5.6,48.7c-0.8,9.6-0.6,32.3,0.3,34.4
		c1.6,3.9,14.5-1.1,19.9-2.4C131.9,516.4,134,496,134,496s-3.7-17.3-1.5-21.6C132.5,474.4,135.1,473.1,135.8,472.2"/>
	<path class="st7" d="M145,367.2c-5.4-5.8-16.6-9.8-29.8-6.5s-19.2,14.5-20.9,19c-1.7,4.5-2.7,10.7-2.7,15.2c0,4.4-0.2,14,0.5,15.3
		c0.7,1.3,1.8,2.4,1.8,2.4l0.3,3.7c0,0-3,4.3-5,6.6c-1.9,2.3-11,11.1-12.2,15.5c-1.2,4.4-2.2,9.5,0.7,16.1c3,6.6,4.8,7.7,5,9.7
		c0.2,2-0.8,4.9-3.5,5c-2.6,0.2-6.4-4.8-6.4-4.8s0.8,6.9,4.1,9c3.3,2.1,4.5,1.7,4.5,1.7s0.6,7.6,4.8,10.2c4.2,2.5,9.8,4.2,16.3,1.6
		c6.5-2.5,13-5.3,16.2-11.6c3.1-6.4,5.7-15.1,5.9-21.5c0.2-6.3-0.6-11.7-0.6-11.7s3.6-4,4.7-5.8c1.1-1.8,5.4-10.7,5.4-15.7
		c0-5-0.5-14-2.5-18.7c-2-4.7-2.2-5.5-2.2-5.5s2.5-5.2,3.9-9.1c2.4-4.8,4.5-15.3,4.5-15.3s4.7,2.2,5.8,3.5c1.1,1.3,5.1,5.7,5.1,5.7
		S150.4,373.1,145,367.2z M127.8,425.7c-1.1,5.1-4.6,11.4-4.6,11.4s-2.7-7.6-2.9-11.6c-0.2-4,0.3-6.2,0-6.3
		c-1.7-0.7-3.8-1.9-5.2-4.1c-1.7-2.7-2.3-9.4-2.1-11c0.2-1.6,2-3.8,4.5-3.6c2.5,0.2,3.9,2.3,5.2,3.8c1.3,1.6,4.4,10.8,4.4,10.8
		S128.6,422,127.8,425.7z"/>
	<path class="st27" d="M198.8,443.8"/>
	<path class="st31" d="M91.3,407.3l-1-1.4c0,0-0.9-15.7,0.1-21.6c1-5.9,3.3-15.1,16.3-23.1c12-7.4,27.5-4.8,32-1.4
		c1.7,1.3,5.5,5.9,6.6,9.1c1.1,3.3,1.7,11.5,1.7,11.5s-5.2-6.7-7-8.3c-1.6-1.3-4.4-3-4.4-3s-1.9,16.3-11.3,27.5
		c-1.1,1.3-2.1,2.4-3.2,3.5l-1-1.3c0,0-4.1-4.7-7.3-1.9c-3.2,2.7-1.4,11.5,0.7,14.1c1.8,2.3,4.9,4.7,8,3.7c2.9-0.9,3.6-4.1,3.6-4.1"
		/>
	<path class="st31" d="M109.2,376.5c0,0-0.3,7.4-2.1,13.1c-1.8,5.7-4.8,10-8.1,13.4c-3.3,3.3-7.7,3.6-7.7,3.6l-0.3,4.8
		c0,0,2.8,0,9-1c3-0.5,7.4-2,11.3-4.3"/>
	<path class="st31" d="M127.5,392.1c0,0,6.7,12.6,3.4,26.5c-3.3,13.9-9.3,18-9.3,18l-1.4-4.6c0,0,4.8-7.5,5.3-14.9
		c0.5-7.5-4.5-16.9-4.5-16.9"/>
	<path class="st31" d="M117.4,413.7c-0.1,0.4-0.1,0.7-0.1,1.1c-0.5,6.9,1.9,14.3,4.2,21.9c2.3,7.6-0.5,23.6-4.7,32.6
		c-5.4,11.6-21.1,16.3-29.4,13.8c-8.7-2.6-8.8-12.2-8.8-12.2"/>
	<path class="st27" d="M93.1,411.3c0,0,6.2,11.5,1.4,21c-5.4,10.8-8.3,16.1-6.2,20.5c2.1,4.4,2.7,7.5,0.2,11.8
		c-2.2,3.8-7.5,7.6-12.7,5.5C71,468,70,459.8,70,459.8s3.3,5.7,6.9,4.8c2.9-0.8,3.9-4.9,1-8.7c-2.9-3.8-6.4-10.8-4.9-19.1
		c1.4-8.3,9.9-14.8,12.3-18.2c2.5-3.3,5.4-7.2,5.4-7.2L93.1,411.3L93.1,411.3z"/>
	<path id="oeil_00000053539565186573517810000008198806689887740556_" d="M140.9,390.5c0.8-0.2,1.9,1.3,2.6,4.1
		c0.7,2.7,0.6,4.5-0.2,4.7c-0.8,0.2-2.1-1.2-2.8-3.9C139.9,392.6,140.1,390.7,140.9,390.5z"/>
	<path class="st30" d="M151,393.9c0,0,4.5,4.2,4.5,4.8c-0.1,0.6-4.2,4.8-4.2,4.8s0.3-2.2,0.3-4.9C151.6,396.3,151,393.9,151,393.9z"
		/>
	<path class="st31" d="M121.2,375.5c0,0-5.3,15.3-8.8,19.8c-3.5,4.5-7.9,8.4-11.7,10.5c-4.6,2.6-9.7,3-9.7,3"/>
	<path class="st31" d="M90.7,407c0,0-0.4-0.7-1.2-0.7c-0.7,0-1.7,0.7-1.8,2.1c-0.1,1.4,0.7,2.3,1.5,2.4c0.8,0.1,1.4,0.1,1.5-0.7
		C90.7,409.3,90.7,407,90.7,407z"/>
	<path class="st27" d="M154.5,481.8c-11.2,7.7-20.8,14.3-20.8,14.3"/>
	<path class="st31" d="M150.6,407.1c0,0-0.4,3-3.9,4.5c-1.9,0.8-3.2,0.5-3.2,0.5"/>
	<path class="st31" d="M135.2,388.3c0,0,1.7-2.4,3.9-3.5c2-1.1,3.1-0.8,3.1-0.8"/>
	<path class="st28" d="M211.5,437.1c3.4-1.9,4.3-2.4,4.9-3.2c0.1-0.2,1.1-0.8,0.4-2.5c-0.4-0.9-1.7-1.2-1.7-1.2l-0.1,0
		c0.7-0.6,1-2,0.7-2.8c-0.4-1.1-1.8-1.5-1.8-1.5l-6.8,3.7l6.9-3.8c0,0,1-0.8-0.2-2.8c-1.2-2.1-2.7-0.8-6.6,0.6
		c-1.7,0.6-2.9,1.1-3.7,1.4c-0.5-0.3-1.6-1.3-1.6-1.7c0-0.5,1.4-6.2,1.6-7c0.5-2.6,0.4-4.7-0.2-6.1c-0.6-1.6-2.9-1.6-2.9-1.6
		s0-0.6-0.1-0.6c-0.2,0-0.5,4.3-1.2,6s-2.2,7.3-3.8,9c-2.2,2.3-5.9,14.2-5.9,14.2l9.5,8c0,0,10.6-2.8,12.1-3.8c1-0.7,3.6-3,4.3-3.6
		c2-1.9,1-3.2,1-3.2L211.5,437.1z M209.1,433.6c0,0,2.9-2.1,5.7-3.2h0l-0.9,0.6L209.1,433.6z"/>
</g>
<g>
	<g>
		<path class="st30" d="M577.7,521.3c0,0.3-4.8,11.5-3.9,13.7s4.8,4.5,5.2,5.5c0.4,1-0.1,8.6,1.3,10.8c1.4,2.2,2.8,4,6.3,4
			s10.1-0.7,11.5-2c1.4-1.4,1.6-5-0.5-6.9s-6-8.9-6.4-10.4c-0.4-1.5-3.6-14.7-3.6-14.7L577.7,521.3z"/>
		<path class="st30" d="M541.2,518.3c0.1,0.9,4.1,14.1,4.1,15.8s-2.7,4.1-4.6,4.1s-3.9,0.4-3.9,0.4s-2,5.2-6.2,5.9
			c-4.2,0.7-13.9,0.1-15.2-1.5c-1.3-1.6-0.5-5.4,0.4-5.6s10.1-2.7,11-4.2c0.9-1.5,6.5-13.6,6.5-13.6L541.2,518.3z"/>
		<path class="st32" d="M560.4,329.5c0,0,11.9,18.7,11.5,41.2c-0.2,13.3,2.4,47.8,3,50.6s8.8,35.1,9.7,49c0.9,13.9,4.5,53,4.5,53
			s-1.2,2.4-5.4,2.4s-7.6-3.5-7.6-3.5s-11.6-49.3-13.1-60.8s-8.2-28.8-8.2-33.6s-17.9-59-17.9-59l4.1-0.5l-9.9,0.8l4.2-0.4
			c0,0,1.5,51.4,1.5,59.6c0,8.2-0.4,21.7,0.2,29.9s5.8,60.3,5.8,61.5s-0.6,5.8-5.4,5.8s-6.4-2.4-6.4-2.4s-11.8-55.4-12.4-66.3
			s-5.8-36-7.9-43.6c-2.1-7.6-10.3-37.3-9.4-49.3c1.7-21.9,7-36.2,7-36.2L560.4,329.5z"/>
		<path class="st33" d="M547.5,233.5c0,0-1,12,0.4,14.2c1.4,2.2,4.5,4.7,4.5,4.7s0.1,12.4-7.6,15c-7.7,2.6-16.6,3-20.3-0.2
			c-3.7-3.2-0.3-12.1-0.3-12.1s4.1-1.7,4.7-2.2c0.6-0.5,1-2,1-5.7s-2.3-11.3-0.9-12.5c1.4-1.3,6.5-4.4,11.4-4.1
			C545.2,230.8,547.5,233.5,547.5,233.5z"/>
		<path class="st33" d="M451,302.4c0.3,0.1,0.6,0.2,1,0.4c0.1,0.1,0.2,0.1,0.3,0.2l0,0c8,3,36.8,13.5,40.5,12.4
			c4.3-1.3,19.3-24.1,19.3-24.1l3-16.3l-11,1.3c0,0-13,22.1-15.1,24.3c-1.7,1.7-25.5-4.5-34.8-7.1l0.1-0.4L451,302.4z"/>
		<path class="st30" d="M528,252.7c0,0-4.1,12.3,3.5,14.1c13.9,3.3,19.4-17.5,19.4-17.5s4.8,0,9.6,0.2c4.8,0.3,9.2,4.7,11,7
			c1.9,2.3,10,8.6,10,8.6s-3.3,3.4-4.8,4.9c-1.5,1.5-7.9,8.3-7.9,8.3l-1.9-1.8c0,0-6.7,30.9-8.2,39.8c-1.3,7.6,8.7,21.4,6.8,23.2
			c-1.9,1.9-14.9,10.4-33.6,9.7c-20.6-0.8-28.9-13.6-26.9-16.5s10.3-16.2,10.9-19.3s-1.3-19.3-1.3-19.3s-4.6-9.2-3.3-13.6
			c1.3-4.3,4.7-10.6,5.6-11.6c0.9-0.9-5.5,9.7-5.5,9.7l-7.6-3.3c0,0,8-12.6,10.4-15c2.4-2.4,3.9-4.2,6.5-5.2
			C523.1,254.4,528,252.7,528,252.7z"/>
		<path class="st33" d="M580.7,265.7c0,0,15.9,22.6,17.5,25.9c1.7,3.3,3.4,7,2.6,9.4c-1,3.1-20.6,24.3-24.2,26.9
			c-3.5,2.6-9.8,8.3-12.2,7.8s-8.3-1.3-10-0.9c-1.7,0.4-5.7,1.9-6.4,1.9c-0.6,0-1.3-0.7-1.3-0.7l5-3.1c0,0-6.4,4-7.2,4.1
			c-0.8,0.1-2.1,0.3-2.4-0.4s-0.1-1.6,0.7-2.1s10.2-5.4,10.2-5.4s-8.6,3.8-10.4,3.9c-1.8,0.2-3.2,0.7-3.8-0.1
			c-0.6-0.9-0.6-1.9,0.2-2.4c0.8-0.5,11.4-3.9,11.4-3.9l-9.9,2.7c0,0,0.5-1.6,1.6-2.4s9.5-3.3,11.2-4c1.7-0.6,1.9-0.7,2.9-0.3
			s7.5,4.2,8.3,4.1c0.7-0.1,1.5,0.2,3.6-1.5c2.1-1.7,18.3-24,18.6-25.7c0.3-1.7-2.6-5-5.8-9.8c-3.2-4.9-11.4-12.1-11.4-12.1
			L580.7,265.7z"/>
	</g>
	<g>
		<path class="st34" d="M550,235.2c0.2,4.6,6.1,15.7,15.5,13.8c9.1-1.8,11-7.4,11.7-10.5c1.3-6.1-0.9-10.1-0.9-10.1
			s5.5-5.8,2.9-11.6c-2-4.6-4.7-6.4-4.7-6.4s2.1-5.4,0.2-11.5c-1.6-5.1-6.7-9-6.7-9s0-7.1-6.1-11.2c-3.7-2.5-10.4-2.4-10.4-2.4
			s-2.8-4.5-11.2-5.9c-8.3-1.4-13.1,4-13.1,4s-9.5-0.4-15.2,6.5c-5.7,7-8.7,13-9.3,17.1c-0.6,4.2,1.1,13.8,1.1,13.8
			s-4.7,2.8-5.1,9.6c-0.4,5.3,2.7,9.1,2.7,9.1s-2.9,5.9-0.2,10.5c2.5,4.2,7.6,8.3,13,7.1c5.1-1.2,9.5-7.3,9.5-7.3"/>
		<path class="st33" d="M510.8,205.8c0,0-1.1,16.8,2.9,24.9c3.5,7.1,8.9,10.8,14.5,11.9c5.6,1.1,14-1.1,18.4-4.2
			c4.3-3.1,8-10.1,8-10.1s1.8,2.4,4.7,1.3s6.6-7.6,5.3-12.9c-1.2-4.8-4.3-4.9-6.1-3.7s-4.1,7.7-4.1,7.7l-0.7-8.9
			c0,0-11.6-4.7-17.3-11.2c-5.8-6.5-10.5-15.5-10.5-15.5s-2.5,7.2-7.4,13C514.9,202.4,510.8,205.8,510.8,205.8z"/>
		<ellipse cx="538.1" cy="215.3" rx="1.3" ry="4.4"/>
		<ellipse cx="520.5" cy="215.3" rx="1.3" ry="4.4"/>
		<polygon class="st27" points="527.9,221.5 525,224.9 528.8,226.4 		"/>
		<path class="st28" d="M522.3,231.6c0,0,4.8,0.6,7.3,0.5c2.5-0.2,6.3-1,6.3-1s-2.7,3.9-5.9,4.3
			C526.9,235.6,522.3,231.6,522.3,231.6z"/>
		<path class="st27" d="M515.8,206.5c0,0,2.1-1.2,3.5-1.5c1.7-0.3,3.8,0.5,3.8,0.5"/>
		<path class="st27" d="M536.1,205.3c0,0,4.5-0.4,5.8,0.1c1.3,0.6,2.9,2.2,2.9,2.2"/>
	</g>
	<g>
		<path class="st33" d="M450,291.8l-1.9-0.7c0,0-1.6-2.2-2.6-2.9c-1-0.7-3-2.5-3-2.5s-5.3,0.3-6.2-0.2c-0.9-0.5-6-0.8-6-0.8
			s1.7-1.5,3.2-1.6c1.5-0.1,8.3-0.6,9.9-0.6s10.9,4.2,10.9,4.2s3.2,2.2,3.8,4.9c0.6,2.8,2.1,7.6-0.7,9.7c-2.8,2.1-6.3,3-8,2.7
			c-1.7-0.3-4.5-3.4-4.5-3.4"/>
		<g>
			<polygon class="st35" points="417.9,283.2 422.8,273.7 476.5,301.7 474.3,305.9 471.5,311.2 			"/>
			<line class="st36" x1="420.8" y1="277.8" x2="474.3" y2="305.7"/>
			<polygon class="st35" points="408.1,271.8 413,272.5 422.8,273.7 417.9,283.2 			"/>
			<path class="st32" d="M412.1,276.4c0,0,1.3,0.3,1.4-0.5s-0.3-3.4-0.3-3.4l-4.9-0.7L412.1,276.4z"/>
		</g>
		<path class="st33" d="M448.1,302.3c0,0,2.4-5.7,2.9-6.7c0.6-1,1.9-3.6,0.5-4c-1.4-0.4-3.5,0.8-4.3,1.9c-0.8,1.2-4.2,5.7-4.2,6.7
			c-0.1,1,0.1,2.8,1.5,3.3C445.8,304.1,448.1,302.3,448.1,302.3z"/>
		<path class="st33" d="M448.4,291.6c-0.2-1-1.5-2.2-2.1-2.1s-3,1.9-4.3,3.3s-4,4.2-3.5,5.8c0.5,1.6,1.7,2.6,2.4,2.6
			s1.8-0.6,1.8-0.6L448.4,291.6z"/>
		<path class="st33" d="M445.2,289.2c0,0-0.8-0.8-1.9-0.8c-1.2,0-3.3,1.5-4.5,2.7c-1.2,1.2-4.3,3.1-4.6,4.1s0.6,3,1.4,3.3
			c0.8,0.3,2.8-0.1,2.8-0.1l4.9-6.4L445.2,289.2z"/>
		<path class="st33" d="M431.5,288.8c-0.5,0-2.5,0.3-2.8,1.5c-0.3,1.2,0.5,3.9,1.4,4.2c0.9,0.3,3.4-0.7,3.8-1.4
			c0.4-0.7,0.3-2.9-0.6-3.5S431.5,288.8,431.5,288.8z"/>
	</g>
</g>
<line class="st27" x1="267.6" y1="286.3" x2="267.6" y2="80.9"/>
<path class="st30" d="M234.1,253.1h67.1c3.9,0,7,3.1,7,7v67.1c0,3.9-3.1,7-7,7h-67.1c-3.9,0-7-3.1-7-7v-67.1
	C227,256.3,230.2,253.1,234.1,253.1z"/>
<path class="st37" d="M267.6,293.7"/>
<rect x="240.7" y="76.5" class="st38" width="53.9" height="12.6"/>
<path class="st39" d="M267.6,293.7"/>
<g>
	<path d="M255.6,290h-7.8l-3,8.5h3v0.8h-6.1v-0.8h1.9l10.1-27.2h3.2l10,27.2h1.8v0.8h-12.9v-0.8h2.8L255.6,290z M248.1,289.1h7.2
		l-3.4-10.4L248.1,289.1z"/>
	<path d="M279.9,290v-3c0-5-0.4-6.3-2-6.3c-0.7,0-1.9,0.3-1.9,1.6c0,0.3,0.1,0.7,0.2,1.1h1c0.2,0.5,0.3,1,0.3,1.8
		c0,1.9-1.5,3.1-3.5,3.1c-2.5,0-3.4-1.3-3.4-3.3c0-3.3,2.9-4.9,8.3-4.9c6.2,0,8.3,1.7,8.3,7.5v8c0,1.6,0.5,2.1,1.1,2.1
		c0.7,0,1.4-0.8,1.6-4.1l0.6,0c-0.2,4.7-1.7,6.1-5.1,6.1c-3.2,0-5-1-5.5-2.9c-0.6,1.9-1.8,2.9-4.6,2.9c-2.8,0-5.9-0.8-5.9-4.8
		c0-4,3.4-4.9,9.1-4.9H279.9z M279.9,294.3v-3.7h-0.3c-1.7,0-2.5,1.2-2.5,3.6v0.6c0,2.8,0.3,3.2,1,3.2S279.9,296.8,279.9,294.3z"/>
</g>
<g>
	<path d="M242.4,310.8h-1.8l-0.7,2h0.7v0.2h-1.4v-0.2h0.4l2.3-6.3h0.7l2.3,6.3h0.4v0.2h-3v-0.2h0.6L242.4,310.8z M240.7,310.6h1.7
		l-0.8-2.4L240.7,310.6z"/>
	<path d="M247.8,309.3c0.2-0.5,0.5-0.8,1.2-0.8c1,0,1.7,0.7,1.7,2.3c0,1.6-0.6,2.3-1.9,2.3c-0.6,0-0.9-0.2-1.1-0.6l-0.1,0.5h-2.1
		v-0.2h0.5v-6.5h-0.5v-0.2h2.2V309.3z M247.8,310.2v1.7c0,0.5,0.2,0.9,0.6,0.9c0.4,0,0.5-0.5,0.5-1.8v-0.5c0-1.3-0.1-1.6-0.4-1.6
		C248.1,308.9,247.8,309.4,247.8,310.2z"/>
	<path d="M253.2,310.4v2.4h0.6v0.2H251v-0.2h0.5v-4H251v-0.2h2.2v0.9c0.2-0.6,0.7-1,1.2-1c0.5,0,1,0.3,1,1c0,0.5-0.3,0.9-0.8,0.9
		c-0.6,0-0.9-0.4-0.7-1h0.3c0.2-0.4,0-0.5-0.2-0.5C253.6,308.9,253.2,309.5,253.2,310.4z"/>
	<path d="M257.7,308.6v4.2h0.5v0.2h-2.7v-0.2h0.5v-4h-0.5v-0.2H257.7z M256.9,306.3c0.6,0,0.9,0.3,0.9,0.8c0,0.5-0.3,0.9-0.9,0.9
		c-0.7,0-0.9-0.5-0.9-0.8C255.9,306.7,256.2,306.3,256.9,306.3z"/>
	<path d="M260.6,306.1v6.7h0.5v0.2h-2.7v-0.2h0.5v-6.5h-0.5v-0.2H260.6z"/>
	<path d="M267.8,306.6l0.1,1.9h-0.2c-0.4-1.3-0.9-1.7-2.1-1.7h-0.3v3h0.4c0.6,0,1-0.5,1.1-1.2h0.1v2.7h-0.2
		c-0.2-0.9-0.5-1.3-1.1-1.3h-0.4v2.8h1.1v0.2H263v-0.2h0.5v-6H263v-0.2H267.8z"/>
	<path d="M270.3,310.8v-0.7c0-1.2-0.1-1.5-0.5-1.5c-0.2,0-0.4,0.1-0.4,0.4c0,0.1,0,0.2,0.1,0.3h0.2c0,0.1,0.1,0.2,0.1,0.4
		c0,0.4-0.3,0.7-0.8,0.7c-0.6,0-0.8-0.3-0.8-0.8c0-0.8,0.7-1.1,1.9-1.1c1.4,0,1.9,0.4,1.9,1.7v1.9c0,0.4,0.1,0.5,0.3,0.5
		c0.2,0,0.3-0.2,0.4-0.9l0.1,0c0,1.1-0.4,1.4-1.2,1.4c-0.7,0-1.2-0.2-1.3-0.7c-0.1,0.4-0.4,0.7-1.1,0.7c-0.6,0-1.4-0.2-1.4-1.1
		c0-0.9,0.8-1.1,2.1-1.1H270.3z M270.3,311.8V311h-0.1c-0.4,0-0.6,0.3-0.6,0.8v0.1c0,0.7,0.1,0.7,0.2,0.7S270.3,312.4,270.3,311.8z"
		/>
	<path d="M273.1,308.8h-0.5v-0.2h0.5v-1.2l1.7-0.4v1.6h1.2v0.2h-1.2v3.1c0,0.5,0.1,0.8,0.4,0.8c0.4,0,0.7-0.4,0.8-1l0.2,0
		c-0.1,0.7-0.4,1.4-1.5,1.4c-0.9,0-1.6-0.3-1.6-1.4V308.8z"/>
	<path d="M278.5,307.2v1.5h1.2v0.2h-1.2v4h1.1v0.2h-3.3v-0.2h0.5v-4h-0.5v-0.2h0.5v0c0-1.7,0.5-2.7,2.2-2.7c1.1,0,1.5,0.6,1.5,1
		c0,0.5-0.3,0.8-0.8,0.8c-0.5,0-0.7-0.3-0.7-0.6c0-0.1,0-0.3,0.1-0.4h0.3c0.2-0.4,0-0.6-0.3-0.6
		C278.6,306.1,278.5,306.5,278.5,307.2z"/>
	<path d="M282.1,310.8v-0.7c0-1.2-0.1-1.5-0.5-1.5c-0.2,0-0.4,0.1-0.4,0.4c0,0.1,0,0.2,0.1,0.3h0.2c0,0.1,0.1,0.2,0.1,0.4
		c0,0.4-0.3,0.7-0.8,0.7c-0.6,0-0.8-0.3-0.8-0.8c0-0.8,0.7-1.1,1.9-1.1c1.4,0,1.9,0.4,1.9,1.7v1.9c0,0.4,0.1,0.5,0.3,0.5
		c0.2,0,0.3-0.2,0.4-0.9l0.1,0c0,1.1-0.4,1.4-1.2,1.4c-0.7,0-1.2-0.2-1.3-0.7c-0.1,0.4-0.4,0.7-1.1,0.7c-0.6,0-1.4-0.2-1.4-1.1
		c0-0.9,0.8-1.1,2.1-1.1H282.1z M282.1,311.8V311h-0.1c-0.4,0-0.6,0.3-0.6,0.8v0.1c0,0.7,0.1,0.7,0.2,0.7S282.1,312.4,282.1,311.8z"
		/>
	<path d="M286.5,310.6v0.5c0,1.2,0.2,1.7,0.9,1.7c0.8,0,1.2-0.7,1.3-1.2l0.2,0c-0.1,0.6-0.4,1.5-1.9,1.5c-1.4,0-2.2-0.8-2.2-2.2
		c0-1.5,0.9-2.3,2.4-2.3c1.1,0,1.7,0.5,1.7,1.2c0,0.6-0.3,0.9-0.8,0.9c-0.5,0-0.8-0.2-0.8-0.8c0-0.1,0-0.2,0-0.3h0.3
		c0-0.1,0.1-0.2,0.1-0.3c0-0.3-0.2-0.4-0.4-0.4C286.7,308.7,286.5,309.2,286.5,310.6z"/>
	<path d="M291.5,308.5c1.4,0,2,0.7,2,2.1h-2.6v0.4c0,1.1,0.2,1.8,1.1,1.8c0.7,0,1.1-0.4,1.3-1.1l0.2,0c-0.2,0.8-0.7,1.4-2,1.4
		c-1.6,0-2.4-0.9-2.4-2.3C289.2,309.2,290.2,308.5,291.5,308.5z M291.9,310.4V310c0-1-0.1-1.3-0.4-1.3c-0.3,0-0.5,0.3-0.5,1.3v0.4
		H291.9z"/>
</g>
<g>
	<path class="st30" d="M162.8,208.6c-5-8-15.5-14.3-27.2-14.3c-18.8,0-34,15.2-34,34s15.2,34,34,34c0.5,0,0.9,0,1.4,0
		c0.2,0,0.3,0,0.5,0c0.4,0,0.7,0,1.1-0.1c2-0.5,3.4-2.3,3.4-4.4c0-1.7-1-3.2-2.4-4c0,0,0,0,0,0c-1.3-0.7-2.2-2-2.4-3.6
		c-0.2-2.4,1.7-4.5,4.1-4.7c2.4-0.2,9.5-0.3,14-1.5c9-2.5,12-8.4,12.5-15.8C168.4,221.6,167.8,216.7,162.8,208.6z"/>
	<circle class="st22" cx="150.6" cy="224.5" r="8"/>
	<circle class="st7" cx="133.8" cy="207.4" r="7.3"/>
	<circle class="st40" cx="153.5" cy="224.5" r="8"/>
	<circle class="st6" cx="116" cy="220.4" r="6"/>
	<circle class="st37" cx="116" cy="238.8" r="3.8"/>
</g>
</svg>
